<?xml version="1.0" encoding="utf-8"?>
<svg version="1.1" id="Laag_1" xmlns="http://www.w3.org/2000/svg" xmlns:xlink="http://www.w3.org/1999/xlink" x="0px" y="0px"
	viewBox="0 0 800 800" style="enable-background:new 0 0 800 800;" xml:space="preserve">
<path class="st0" d="M400,280c-66.3,0-120,53.7-120,120c0,66.3,53.7,120,120,120c66.3,0,120-53.7,120-120
	C520,333.7,466.3,280,400,280L400,280z M455,453.1c-2.2,3.5-6.8,4.6-10.3,2.5c-28.2-17.2-63.6-21.1-105.4-11.6c-4,0.9-8-1.6-9-5.6
	c-0.9-4,1.6-8,5.6-9c45.7-10.4,84.9-6,116.5,13.4C456.1,444.9,457.2,449.5,455,453.1L455,453.1z M469.7,420.4
	c-2.7,4.4-8.5,5.8-12.9,3.1c-32.2-19.8-81.4-25.6-119.5-14c-4.9,1.5-10.2-1.3-11.7-6.2c-1.5-4.9,1.3-10.2,6.2-11.7
	c43.6-13.2,97.7-6.8,134.8,15.9C471,410.2,472.4,416,469.7,420.4L469.7,420.4L469.7,420.4z M471,386.4
	c-38.7-23-102.5-25.1-139.4-13.9c-5.9,1.8-12.2-1.5-14-7.5c-1.8-5.9,1.5-12.2,7.5-14c42.4-12.9,112.8-10.4,157.3,16
	c5.3,3.2,7.1,10.1,3.9,15.4C483.2,387.8,476.3,389.5,471,386.4L471,386.4z"/>
</svg>
